<mxfile host="Electron" agent="Mozilla/5.0 (Windows NT 10.0; Win64; x64) AppleWebKit/537.36 (KHTML, like Gecko) draw.io/28.1.2 Chrome/138.0.7204.243 Electron/37.4.0 Safari/537.36" version="28.1.2">
  <diagram name="Страница — 1" id="9nRK1ePeQMd79xpW0Z75">
    <mxGraphModel dx="1427" dy="2028" grid="1" gridSize="10" guides="1" tooltips="1" connect="1" arrows="1" fold="1" page="1" pageScale="1" pageWidth="827" pageHeight="1169" math="0" shadow="0">
      <root>
        <mxCell id="0" />
        <mxCell id="1" parent="0" />
        <mxCell id="41XbtJYlyzDtW5zezhZF-1" value="&lt;div style=&quot;background-color:#2b2b2b;color:#a9b7c6;font-family:&#39;JetBrains Mono&#39;,monospace;font-size:9,8pt;&quot;&gt;&lt;pre&gt;Car&lt;/pre&gt;&lt;pre&gt; Final&lt;/pre&gt;&lt;/div&gt;" style="rounded=0;whiteSpace=wrap;html=1;" vertex="1" parent="1">
          <mxGeometry x="110" y="360" width="120" height="60" as="geometry" />
        </mxCell>
        <mxCell id="41XbtJYlyzDtW5zezhZF-2" value="&lt;div style=&quot;background-color:#2b2b2b;color:#a9b7c6;font-family:&#39;JetBrains Mono&#39;,monospace;font-size:9,8pt;&quot;&gt;&lt;pre&gt;Airplane &lt;/pre&gt;&lt;pre&gt;Final&lt;/pre&gt;&lt;/div&gt;" style="rounded=0;whiteSpace=wrap;html=1;" vertex="1" parent="1">
          <mxGeometry x="250" y="360" width="120" height="60" as="geometry" />
        </mxCell>
        <mxCell id="41XbtJYlyzDtW5zezhZF-3" value="&lt;div style=&quot;background-color:#2b2b2b;color:#a9b7c6;font-family:&#39;JetBrains Mono&#39;,monospace;font-size:9,8pt;&quot;&gt;&lt;pre&gt;Bicycle&lt;/pre&gt;&lt;pre&gt; Final&lt;/pre&gt;&lt;/div&gt;" style="rounded=0;whiteSpace=wrap;html=1;" vertex="1" parent="1">
          <mxGeometry x="400" y="360" width="120" height="60" as="geometry" />
        </mxCell>
        <mxCell id="41XbtJYlyzDtW5zezhZF-15" style="edgeStyle=orthogonalEdgeStyle;rounded=0;orthogonalLoop=1;jettySize=auto;html=1;entryX=0.563;entryY=1.012;entryDx=0;entryDy=0;entryPerimeter=0;" edge="1" parent="1">
          <mxGeometry relative="1" as="geometry">
            <mxPoint x="654.3" y="360" as="sourcePoint" />
            <mxPoint x="430.01000000000005" y="232.03999999999996" as="targetPoint" />
            <Array as="points">
              <mxPoint x="654.3" y="280" />
              <mxPoint x="430.3" y="280" />
            </Array>
          </mxGeometry>
        </mxCell>
        <mxCell id="41XbtJYlyzDtW5zezhZF-4" value="&lt;div style=&quot;background-color:#2b2b2b;color:#a9b7c6;font-family:&#39;JetBrains Mono&#39;,monospace;font-size:9,8pt;&quot;&gt;&lt;pre&gt;ElectricScooter &lt;/pre&gt;&lt;pre&gt;Final&lt;/pre&gt;&lt;/div&gt;" style="rounded=0;whiteSpace=wrap;html=1;" vertex="1" parent="1">
          <mxGeometry x="550" y="360" width="120" height="60" as="geometry" />
        </mxCell>
        <mxCell id="41XbtJYlyzDtW5zezhZF-5" value="&lt;div style=&quot;background-color:#2b2b2b;color:#a9b7c6;font-family:&#39;JetBrains Mono&#39;,monospace;font-size:9,8pt;&quot;&gt;&lt;pre&gt;&lt;span style=&quot;color:#9876aa;&quot;&gt;doors&lt;/span&gt;&lt;/pre&gt;&lt;pre&gt;driveType&lt;/pre&gt;&lt;/div&gt;" style="rounded=0;whiteSpace=wrap;html=1;" vertex="1" parent="1">
          <mxGeometry x="110" y="420" width="120" height="60" as="geometry" />
        </mxCell>
        <mxCell id="41XbtJYlyzDtW5zezhZF-7" value="&lt;div style=&quot;background-color:#2b2b2b;color:#a9b7c6;font-family:&#39;JetBrains Mono&#39;,monospace;font-size:9,8pt;&quot;&gt;&lt;pre&gt;&lt;span style=&quot;color:#9876aa;&quot;&gt;wingspan&lt;/span&gt;&lt;/pre&gt;&lt;pre&gt;&lt;span style=&quot;color:#9876aa;&quot;&gt;maxAltitude&lt;/span&gt;&lt;/pre&gt;&lt;/div&gt;" style="rounded=0;whiteSpace=wrap;html=1;" vertex="1" parent="1">
          <mxGeometry x="250" y="420" width="120" height="60" as="geometry" />
        </mxCell>
        <mxCell id="41XbtJYlyzDtW5zezhZF-8" value="&lt;div style=&quot;background-color:#2b2b2b;color:#a9b7c6;font-family:&#39;JetBrains Mono&#39;,monospace;font-size:9,8pt;&quot;&gt;&lt;pre&gt;&lt;span style=&quot;color:#9876aa;&quot;&gt;gears&lt;/span&gt;&lt;/pre&gt;&lt;pre&gt;&lt;div style=&quot;font-family: &amp;quot;JetBrains Mono&amp;quot;, monospace;&quot;&gt;&lt;pre&gt;&lt;span style=&quot;color:#9876aa;&quot;&gt;engine&lt;/span&gt;&lt;/pre&gt;&lt;/div&gt;&lt;/pre&gt;&lt;/div&gt;" style="rounded=0;whiteSpace=wrap;html=1;" vertex="1" parent="1">
          <mxGeometry x="400" y="420" width="120" height="60" as="geometry" />
        </mxCell>
        <mxCell id="41XbtJYlyzDtW5zezhZF-9" value="&lt;div style=&quot;background-color:#2b2b2b;color:#a9b7c6;font-family:&#39;JetBrains Mono&#39;,monospace;font-size:9,8pt;&quot;&gt;&lt;pre&gt;&lt;span style=&quot;color:#9876aa;&quot;&gt;batteryCapacity&lt;/span&gt;&lt;/pre&gt;&lt;pre&gt;&lt;div style=&quot;font-family: &amp;quot;JetBrains Mono&amp;quot;, monospace;&quot;&gt;&lt;pre&gt;&lt;span style=&quot;color:#9876aa;&quot;&gt;maxRange&lt;/span&gt;&lt;/pre&gt;&lt;/div&gt;&lt;/pre&gt;&lt;/div&gt;" style="rounded=0;whiteSpace=wrap;html=1;" vertex="1" parent="1">
          <mxGeometry x="550" y="420" width="120" height="60" as="geometry" />
        </mxCell>
        <mxCell id="41XbtJYlyzDtW5zezhZF-19" style="edgeStyle=orthogonalEdgeStyle;rounded=0;orthogonalLoop=1;jettySize=auto;html=1;exitX=0.5;exitY=0;exitDx=0;exitDy=0;" edge="1" parent="1" source="41XbtJYlyzDtW5zezhZF-11" target="41XbtJYlyzDtW5zezhZF-18">
          <mxGeometry relative="1" as="geometry" />
        </mxCell>
        <mxCell id="41XbtJYlyzDtW5zezhZF-11" value="&lt;div style=&quot;background-color:#2b2b2b;color:#a9b7c6;font-family:&#39;JetBrains Mono&#39;,monospace;font-size:9,8pt;&quot;&gt;&lt;pre&gt;&lt;span style=&quot;color:#ffc66d;&quot;&gt;start&lt;/span&gt;()&lt;/pre&gt;&lt;pre&gt;&lt;div style=&quot;font-family: &amp;quot;JetBrains Mono&amp;quot;, monospace;&quot;&gt;&lt;pre&gt; &lt;span style=&quot;color:#ffc66d;&quot;&gt;stop&lt;/span&gt;()&lt;/pre&gt;&lt;pre&gt;&lt;div style=&quot;font-family: &amp;quot;JetBrains Mono&amp;quot;, monospace;&quot;&gt;&lt;pre&gt;&lt;span style=&quot;color:#ffc66d;&quot;&gt;getInfo&lt;/span&gt;()&lt;/pre&gt;&lt;pre&gt;&lt;div style=&quot;font-family: &amp;quot;JetBrains Mono&amp;quot;, monospace;&quot;&gt;&lt;pre&gt;&lt;span style=&quot;color:#ffc66d;&quot;&gt;accelerate&lt;/span&gt;()&lt;/pre&gt;&lt;pre&gt;&lt;div style=&quot;font-family: &amp;quot;JetBrains Mono&amp;quot;, monospace;&quot;&gt;&lt;pre&gt;&lt;span style=&quot;color:#ffc66d;&quot;&gt;brake&lt;/span&gt;()&lt;/pre&gt;&lt;/div&gt;&lt;/pre&gt;&lt;/div&gt;&lt;/pre&gt;&lt;/div&gt;&lt;/pre&gt;&lt;/div&gt;&lt;/pre&gt;&lt;/div&gt;" style="whiteSpace=wrap;html=1;aspect=fixed;" vertex="1" parent="1">
          <mxGeometry x="320" y="90" width="140" height="140" as="geometry" />
        </mxCell>
        <mxCell id="41XbtJYlyzDtW5zezhZF-13" style="edgeStyle=orthogonalEdgeStyle;rounded=0;orthogonalLoop=1;jettySize=auto;html=1;entryX=0.602;entryY=1.02;entryDx=0;entryDy=0;entryPerimeter=0;" edge="1" parent="1" source="41XbtJYlyzDtW5zezhZF-3" target="41XbtJYlyzDtW5zezhZF-11">
          <mxGeometry relative="1" as="geometry" />
        </mxCell>
        <mxCell id="41XbtJYlyzDtW5zezhZF-14" style="edgeStyle=orthogonalEdgeStyle;rounded=0;orthogonalLoop=1;jettySize=auto;html=1;entryX=0.412;entryY=1;entryDx=0;entryDy=0;entryPerimeter=0;" edge="1" parent="1" source="41XbtJYlyzDtW5zezhZF-2" target="41XbtJYlyzDtW5zezhZF-11">
          <mxGeometry relative="1" as="geometry" />
        </mxCell>
        <mxCell id="41XbtJYlyzDtW5zezhZF-16" style="edgeStyle=orthogonalEdgeStyle;rounded=0;orthogonalLoop=1;jettySize=auto;html=1;entryX=0.471;entryY=1;entryDx=0;entryDy=0;entryPerimeter=0;" edge="1" parent="1">
          <mxGeometry relative="1" as="geometry">
            <mxPoint x="130" y="360" as="sourcePoint" />
            <mxPoint x="330.06999999999994" y="230" as="targetPoint" />
            <Array as="points">
              <mxPoint x="130" y="280" />
              <mxPoint x="330" y="280" />
            </Array>
          </mxGeometry>
        </mxCell>
        <mxCell id="41XbtJYlyzDtW5zezhZF-18" value="&lt;div style=&quot;background-color: rgb(43, 43, 43); font-family: &amp;quot;JetBrains Mono&amp;quot;, monospace; color: rgb(169, 183, 198);&quot;&gt;&lt;pre style=&quot;&quot;&gt;&lt;font color=&quot;#ffc66d&quot;&gt;model&lt;/font&gt;&lt;/pre&gt;&lt;pre style=&quot;&quot;&gt;&lt;div style=&quot;font-family: &amp;quot;JetBrains Mono&amp;quot;, monospace;&quot;&gt;&lt;pre style=&quot;&quot;&gt;&lt;font color=&quot;#a9b7c6&quot;&gt; &lt;/font&gt;&lt;font color=&quot;#ffc66d&quot;&gt;year&lt;/font&gt;&lt;/pre&gt;&lt;pre style=&quot;&quot;&gt;&lt;div style=&quot;font-family: &amp;quot;JetBrains Mono&amp;quot;, monospace;&quot;&gt;&lt;pre style=&quot;&quot;&gt;&lt;font color=&quot;#ffc66d&quot;&gt;engine&lt;/font&gt;&lt;/pre&gt;&lt;pre style=&quot;&quot;&gt;&lt;div style=&quot;font-family: &amp;quot;JetBrains Mono&amp;quot;, monospace;&quot;&gt;&lt;pre style=&quot;&quot;&gt;&lt;font color=&quot;#ffc66d&quot;&gt;currentSpeed&lt;/font&gt;&lt;/pre&gt;&lt;/div&gt;&lt;/pre&gt;&lt;/div&gt;&lt;/pre&gt;&lt;/div&gt;&lt;/pre&gt;&lt;/div&gt;" style="whiteSpace=wrap;html=1;aspect=fixed;" vertex="1" parent="1">
          <mxGeometry x="320" y="-70" width="140" height="140" as="geometry" />
        </mxCell>
        <mxCell id="41XbtJYlyzDtW5zezhZF-20" value="&lt;div style=&quot;background-color: rgb(43, 43, 43); font-family: &amp;quot;JetBrains Mono&amp;quot;, monospace; color: rgb(169, 183, 198);&quot;&gt;&lt;pre style=&quot;color: rgb(169, 183, 198);&quot;&gt;&lt;font color=&quot;#ffc66d&quot;&gt;abstract&lt;/font&gt;&lt;/pre&gt;&lt;pre style=&quot;&quot;&gt;&lt;div style=&quot;font-family: &amp;quot;JetBrains Mono&amp;quot;, monospace;&quot;&gt;&lt;pre style=&quot;&quot;&gt;&lt;font color=&quot;#a9b7c6&quot;&gt; &lt;/font&gt;&lt;font color=&quot;#ffc66d&quot;&gt;Transport&lt;/font&gt;&lt;/pre&gt;&lt;pre style=&quot;color: rgb(169, 183, 198);&quot;&gt;&lt;div style=&quot;font-family: &amp;quot;JetBrains Mono&amp;quot;, monospace;&quot;&gt;&lt;pre style=&quot;&quot;&gt;&lt;font color=&quot;#ffc66d&quot;&gt;sealed&lt;/font&gt;&lt;/pre&gt;&lt;/div&gt;&lt;/pre&gt;&lt;/div&gt;&lt;/pre&gt;&lt;/div&gt;" style="whiteSpace=wrap;html=1;aspect=fixed;" vertex="1" parent="1">
          <mxGeometry x="320" y="-230" width="140" height="140" as="geometry" />
        </mxCell>
        <mxCell id="41XbtJYlyzDtW5zezhZF-23" value="" style="endArrow=classic;html=1;rounded=0;" edge="1" parent="1">
          <mxGeometry width="50" height="50" relative="1" as="geometry">
            <mxPoint x="400" y="-70" as="sourcePoint" />
            <mxPoint x="400" y="-90" as="targetPoint" />
          </mxGeometry>
        </mxCell>
        <mxCell id="41XbtJYlyzDtW5zezhZF-28" value="" style="endArrow=none;html=1;rounded=0;" edge="1" parent="1">
          <mxGeometry width="50" height="50" relative="1" as="geometry">
            <mxPoint x="330" y="-380" as="sourcePoint" />
            <mxPoint x="330" y="-380" as="targetPoint" />
          </mxGeometry>
        </mxCell>
        <mxCell id="41XbtJYlyzDtW5zezhZF-30" value="&lt;pre style=&quot;color: rgb(169, 183, 198); background-color: rgb(43, 43, 43);&quot;&gt;&lt;span style=&quot;color: rgb(255, 198, 109);&quot;&gt;getInfo&lt;/span&gt;()&lt;/pre&gt;" style="rounded=0;whiteSpace=wrap;html=1;" vertex="1" parent="1">
          <mxGeometry x="340" y="-320" width="120" height="60" as="geometry" />
        </mxCell>
        <mxCell id="41XbtJYlyzDtW5zezhZF-31" value="&lt;pre style=&quot;color: rgb(169, 183, 198); background-color: rgb(43, 43, 43);&quot;&gt;Type&lt;/pre&gt;&lt;pre style=&quot;color: rgb(169, 183, 198); background-color: rgb(43, 43, 43);&quot;&gt;speed&lt;/pre&gt;&lt;pre style=&quot;color: rgb(169, 183, 198); background-color: rgb(43, 43, 43);&quot;&gt;fuelType&lt;/pre&gt;" style="rounded=0;whiteSpace=wrap;html=1;" vertex="1" parent="1">
          <mxGeometry x="340" y="-400" width="120" height="80" as="geometry" />
        </mxCell>
        <mxCell id="41XbtJYlyzDtW5zezhZF-47" style="edgeStyle=orthogonalEdgeStyle;rounded=0;orthogonalLoop=1;jettySize=auto;html=1;" edge="1" parent="1" source="41XbtJYlyzDtW5zezhZF-32">
          <mxGeometry relative="1" as="geometry">
            <mxPoint x="570" y="-470" as="targetPoint" />
          </mxGeometry>
        </mxCell>
        <mxCell id="41XbtJYlyzDtW5zezhZF-48" style="edgeStyle=orthogonalEdgeStyle;rounded=0;orthogonalLoop=1;jettySize=auto;html=1;" edge="1" parent="1" source="41XbtJYlyzDtW5zezhZF-32">
          <mxGeometry relative="1" as="geometry">
            <mxPoint x="220" y="-470" as="targetPoint" />
          </mxGeometry>
        </mxCell>
        <mxCell id="41XbtJYlyzDtW5zezhZF-32" value="&lt;pre style=&quot;color: rgb(169, 183, 198); background-color: rgb(43, 43, 43);&quot;&gt;&lt;span style=&quot;color: rgb(255, 198, 109);&quot;&gt;Engine&lt;/span&gt;&lt;/pre&gt;" style="rounded=0;whiteSpace=wrap;html=1;" vertex="1" parent="1">
          <mxGeometry x="340" y="-460" width="120" height="60" as="geometry" />
        </mxCell>
        <mxCell id="41XbtJYlyzDtW5zezhZF-34" style="edgeStyle=orthogonalEdgeStyle;rounded=0;orthogonalLoop=1;jettySize=auto;html=1;entryX=0.424;entryY=1.05;entryDx=0;entryDy=0;entryPerimeter=0;" edge="1" parent="1" source="41XbtJYlyzDtW5zezhZF-20" target="41XbtJYlyzDtW5zezhZF-30">
          <mxGeometry relative="1" as="geometry" />
        </mxCell>
        <mxCell id="41XbtJYlyzDtW5zezhZF-35" value="&lt;pre style=&quot;color: rgb(169, 183, 198); background-color: rgb(43, 43, 43);&quot;&gt;&lt;div style=&quot;font-family: &amp;quot;JetBrains Mono&amp;quot;, monospace;&quot;&gt;&lt;pre&gt;&lt;span style=&quot;color:#9876aa;font-style:italic;&quot;&gt;INTERNAL_COMBUSTION&lt;/span&gt;&lt;/pre&gt;&lt;/div&gt;&lt;/pre&gt;&lt;pre style=&quot;color: rgb(169, 183, 198); background-color: rgb(43, 43, 43);&quot;&gt;&lt;div style=&quot;font-family: &amp;quot;JetBrains Mono&amp;quot;, monospace;&quot;&gt;&lt;pre&gt;&lt;span style=&quot;color:#9876aa;font-style:italic;&quot;&gt;ELECTRIC_MOTOR&lt;/span&gt;&lt;/pre&gt;&lt;/div&gt;&lt;/pre&gt;&lt;pre style=&quot;color: rgb(169, 183, 198); background-color: rgb(43, 43, 43);&quot;&gt;&lt;div style=&quot;font-family: &amp;quot;JetBrains Mono&amp;quot;, monospace;&quot;&gt;&lt;pre&gt;&lt;span style=&quot;color:#9876aa;font-style:italic;&quot;&gt;JET_ENGINE&lt;/span&gt;&lt;/pre&gt;&lt;/div&gt;&lt;/pre&gt;&lt;pre style=&quot;color: rgb(169, 183, 198); background-color: rgb(43, 43, 43);&quot;&gt;&lt;div style=&quot;font-family: &amp;quot;JetBrains Mono&amp;quot;, monospace;&quot;&gt;&lt;pre&gt;&lt;span style=&quot;color:#9876aa;font-style:italic;&quot;&gt;NONE&lt;/span&gt;&lt;/pre&gt;&lt;/div&gt;&lt;/pre&gt;" style="rounded=0;whiteSpace=wrap;html=1;" vertex="1" parent="1">
          <mxGeometry x="460" y="-580" width="130" height="100" as="geometry" />
        </mxCell>
        <mxCell id="41XbtJYlyzDtW5zezhZF-36" value="&lt;pre style=&quot;color: rgb(169, 183, 198); background-color: rgb(43, 43, 43);&quot;&gt;&lt;div style=&quot;font-family: &amp;quot;JetBrains Mono&amp;quot;, monospace;&quot;&gt;&lt;pre&gt;&lt;span style=&quot;color:#cc7832;&quot;&gt;enum&lt;/span&gt;&lt;/pre&gt;&lt;/div&gt;&lt;/pre&gt;&lt;pre style=&quot;color: rgb(169, 183, 198); background-color: rgb(43, 43, 43);&quot;&gt;&lt;div style=&quot;font-family: &amp;quot;JetBrains Mono&amp;quot;, monospace;&quot;&gt;&lt;pre&gt;EngineType&lt;/pre&gt;&lt;/div&gt;&lt;/pre&gt;" style="rounded=0;whiteSpace=wrap;html=1;" vertex="1" parent="1">
          <mxGeometry x="470" y="-680" width="120" height="60" as="geometry" />
        </mxCell>
        <mxCell id="41XbtJYlyzDtW5zezhZF-37" value="&lt;pre style=&quot;color: rgb(169, 183, 198); background-color: rgb(43, 43, 43);&quot;&gt;&lt;div style=&quot;font-family: &amp;quot;JetBrains Mono&amp;quot;, monospace;&quot;&gt;&lt;pre&gt;&lt;span style=&quot;color:#9876aa;font-style:italic;&quot;&gt;PETROL&lt;/span&gt;&lt;/pre&gt;&lt;/div&gt;&lt;/pre&gt;&lt;pre style=&quot;color: rgb(169, 183, 198); background-color: rgb(43, 43, 43);&quot;&gt;&lt;div style=&quot;font-family: &amp;quot;JetBrains Mono&amp;quot;, monospace;&quot;&gt;&lt;pre&gt;&lt;span style=&quot;color:#9876aa;font-style:italic;&quot;&gt;ELECTRIC&lt;/span&gt;&lt;/pre&gt;&lt;/div&gt;&lt;/pre&gt;&lt;pre style=&quot;background-color: rgb(43, 43, 43); color: rgb(169, 183, 198);&quot;&gt;&lt;div style=&quot;font-family: &amp;quot;JetBrains Mono&amp;quot;, monospace;&quot;&gt;&lt;pre&gt;&lt;span style=&quot;color:#9876aa;font-style:italic;&quot;&gt;KEROSENE&lt;/span&gt;&lt;/pre&gt;&lt;/div&gt;&lt;/pre&gt;&lt;pre style=&quot;background-color: rgb(43, 43, 43); color: rgb(169, 183, 198);&quot;&gt;&lt;div style=&quot;font-family: &amp;quot;JetBrains Mono&amp;quot;, monospace;&quot;&gt;&lt;pre&gt;&lt;span style=&quot;color:#9876aa;font-style:italic;&quot;&gt;FOOD&lt;/span&gt;&lt;/pre&gt;&lt;/div&gt;&lt;/pre&gt;" style="rounded=0;whiteSpace=wrap;html=1;" vertex="1" parent="1">
          <mxGeometry x="330" y="-580" width="100" height="100" as="geometry" />
        </mxCell>
        <mxCell id="41XbtJYlyzDtW5zezhZF-38" value="&lt;pre style=&quot;color: rgb(169, 183, 198); background-color: rgb(43, 43, 43);&quot;&gt;&lt;div style=&quot;font-family: &amp;quot;JetBrains Mono&amp;quot;, monospace;&quot;&gt;&lt;pre&gt;&lt;span style=&quot;color:#9876aa;font-style:italic;&quot;&gt;CAR&lt;/span&gt;&lt;/pre&gt;&lt;/div&gt;&lt;/pre&gt;&lt;pre style=&quot;color: rgb(169, 183, 198); background-color: rgb(43, 43, 43);&quot;&gt;&lt;div style=&quot;font-family: &amp;quot;JetBrains Mono&amp;quot;, monospace;&quot;&gt;&lt;pre&gt;&lt;span style=&quot;color:#9876aa;font-style:italic;&quot;&gt;PLAIN&lt;/span&gt;&lt;/pre&gt;&lt;/div&gt;&lt;/pre&gt;&lt;pre style=&quot;color: rgb(169, 183, 198); background-color: rgb(43, 43, 43);&quot;&gt;&lt;div style=&quot;font-family: &amp;quot;JetBrains Mono&amp;quot;, monospace;&quot;&gt;&lt;pre&gt;&lt;span style=&quot;color:#9876aa;font-style:italic;&quot;&gt;ELECTROSCUTER&lt;/span&gt;&lt;/pre&gt;&lt;/div&gt;&lt;/pre&gt;&lt;pre style=&quot;color: rgb(169, 183, 198); background-color: rgb(43, 43, 43);&quot;&gt;&lt;div style=&quot;font-family: &amp;quot;JetBrains Mono&amp;quot;, monospace;&quot;&gt;&lt;pre&gt;&lt;span style=&quot;color:#9876aa;font-style:italic;&quot;&gt;BICYCLE&lt;/span&gt;&lt;/pre&gt;&lt;/div&gt;&lt;/pre&gt;" style="rounded=0;whiteSpace=wrap;html=1;" vertex="1" parent="1">
          <mxGeometry x="180" y="-580" width="130" height="100" as="geometry" />
        </mxCell>
        <mxCell id="41XbtJYlyzDtW5zezhZF-39" value="&lt;pre style=&quot;color: rgb(169, 183, 198); background-color: rgb(43, 43, 43);&quot;&gt;&lt;div style=&quot;font-family: &amp;quot;JetBrains Mono&amp;quot;, monospace;&quot;&gt;&lt;pre&gt;&lt;span style=&quot;color:#cc7832;&quot;&gt;enum&lt;/span&gt;&lt;/pre&gt;&lt;/div&gt;&lt;/pre&gt;&lt;pre style=&quot;color: rgb(169, 183, 198); background-color: rgb(43, 43, 43);&quot;&gt;&lt;div style=&quot;font-family: &amp;quot;JetBrains Mono&amp;quot;, monospace;&quot;&gt;&lt;pre&gt;&lt;div style=&quot;font-family: &amp;quot;JetBrains Mono&amp;quot;, monospace;&quot;&gt;&lt;pre&gt;FuelType&lt;/pre&gt;&lt;/div&gt;&lt;/pre&gt;&lt;/div&gt;&lt;/pre&gt;" style="rounded=0;whiteSpace=wrap;html=1;" vertex="1" parent="1">
          <mxGeometry x="330" y="-680" width="120" height="60" as="geometry" />
        </mxCell>
        <mxCell id="41XbtJYlyzDtW5zezhZF-40" value="&lt;pre style=&quot;color: rgb(169, 183, 198); background-color: rgb(43, 43, 43);&quot;&gt;&lt;div style=&quot;font-family: &amp;quot;JetBrains Mono&amp;quot;, monospace;&quot;&gt;&lt;pre&gt;&lt;span style=&quot;color:#cc7832;&quot;&gt;enum&lt;/span&gt;&lt;/pre&gt;&lt;/div&gt;&lt;/pre&gt;&lt;pre style=&quot;color: rgb(169, 183, 198); background-color: rgb(43, 43, 43);&quot;&gt;&lt;div style=&quot;font-family: &amp;quot;JetBrains Mono&amp;quot;, monospace;&quot;&gt;&lt;pre&gt;&lt;div style=&quot;font-family: &amp;quot;JetBrains Mono&amp;quot;, monospace;&quot;&gt;&lt;pre&gt;TransportType&lt;/pre&gt;&lt;/div&gt;&lt;/pre&gt;&lt;/div&gt;&lt;/pre&gt;" style="rounded=0;whiteSpace=wrap;html=1;" vertex="1" parent="1">
          <mxGeometry x="180" y="-680" width="120" height="60" as="geometry" />
        </mxCell>
        <mxCell id="41XbtJYlyzDtW5zezhZF-42" style="edgeStyle=orthogonalEdgeStyle;rounded=0;orthogonalLoop=1;jettySize=auto;html=1;entryX=0.417;entryY=1.05;entryDx=0;entryDy=0;entryPerimeter=0;" edge="1" parent="1" source="41XbtJYlyzDtW5zezhZF-37" target="41XbtJYlyzDtW5zezhZF-39">
          <mxGeometry relative="1" as="geometry" />
        </mxCell>
        <mxCell id="41XbtJYlyzDtW5zezhZF-44" style="edgeStyle=orthogonalEdgeStyle;rounded=0;orthogonalLoop=1;jettySize=auto;html=1;entryX=0.46;entryY=1.05;entryDx=0;entryDy=0;entryPerimeter=0;" edge="1" parent="1" source="41XbtJYlyzDtW5zezhZF-35" target="41XbtJYlyzDtW5zezhZF-36">
          <mxGeometry relative="1" as="geometry" />
        </mxCell>
        <mxCell id="41XbtJYlyzDtW5zezhZF-45" style="edgeStyle=orthogonalEdgeStyle;rounded=0;orthogonalLoop=1;jettySize=auto;html=1;entryX=0.542;entryY=1;entryDx=0;entryDy=0;entryPerimeter=0;" edge="1" parent="1" source="41XbtJYlyzDtW5zezhZF-38" target="41XbtJYlyzDtW5zezhZF-40">
          <mxGeometry relative="1" as="geometry" />
        </mxCell>
        <mxCell id="41XbtJYlyzDtW5zezhZF-53" value="" style="endArrow=classic;html=1;rounded=0;" edge="1" parent="1">
          <mxGeometry width="50" height="50" relative="1" as="geometry">
            <mxPoint x="390" y="-460" as="sourcePoint" />
            <mxPoint x="389.92" y="-480" as="targetPoint" />
            <Array as="points">
              <mxPoint x="389.92" y="-480" />
            </Array>
          </mxGeometry>
        </mxCell>
      </root>
    </mxGraphModel>
  </diagram>
</mxfile>
